<svg width="18" height="20" viewBox="0 0 18 20" fill="none" xmlns="http://www.w3.org/2000/svg">
    <path d="M8.53726 19.8597C8.53726 19.8597 8.53771 19.86 8.99996 19.1667L9.46221 19.86C9.18229 20.0467 8.81717 20.0464 8.53726 19.8597Z"
          fill="#FFBF00"/>
    <path d="M7.33329 8.33333C7.33329 7.41286 8.07948 6.66667 8.99996 6.66667C9.92043 6.66667 10.6666 7.41286 10.6666 8.33333C10.6666 9.25381 9.92043 10 8.99996 10C8.07948 10 7.33329 9.25381 7.33329 8.33333Z"
          fill="#FFBF00"/>
    <path fill-rule="evenodd" clip-rule="evenodd"
          d="M8.53726 19.8597L8.99996 19.1667C9.46221 19.86 9.46328 19.8593 9.46328 19.8593L9.46504 19.8582L9.47059 19.8544L9.48969 19.8415C9.50592 19.8305 9.52906 19.8147 9.55866 19.7942C9.61785 19.7532 9.7029 19.6934 9.81013 19.616C10.0245 19.4612 10.328 19.2352 10.6909 18.9462C11.4155 18.3692 12.3838 17.5357 13.3549 16.5106C15.2631 14.4965 17.3333 11.585 17.3333 8.33333C17.3333 6.1232 16.4553 4.00358 14.8925 2.44078C13.3297 0.877974 11.2101 0 8.99996 0C6.78982 0 4.67021 0.877974 3.1074 2.44078C1.5446 4.00358 0.666626 6.1232 0.666626 8.33333C0.666626 11.585 2.73684 14.4965 4.645 16.5106C5.61612 17.5357 6.5844 18.3692 7.30898 18.9462C7.67192 19.2352 7.97541 19.4612 8.18978 19.616C8.29701 19.6934 8.38207 19.7532 8.44126 19.7942C8.47085 19.8147 8.494 19.8305 8.51022 19.8415L8.52932 19.8544L8.53487 19.8582L8.53726 19.8597ZM8.99996 5C7.15901 5 5.66663 6.49238 5.66663 8.33333C5.66663 10.1743 7.15901 11.6667 8.99996 11.6667C10.8409 11.6667 12.3333 10.1743 12.3333 8.33333C12.3333 6.49238 10.8409 5 8.99996 5Z"
          fill="#FFBF00"/>
</svg>
