<svg width="590" height="150" viewBox="0 0 590 150" fill="none" xmlns="http://www.w3.org/2000/svg">
    <g opacity="0.1">
        <path d="M0 63C0 61.3431 1.34315 60 3 60H95.3333C96.9902 60 98.3333 61.3431 98.3333 63V150H3C1.34315 150 0 148.657 0 147V63Z"
              fill="#808080"/>
        <path d="M98.3333 33C98.3333 31.3431 99.6765 30 101.333 30H193.667C195.324 30 196.667 31.3431 196.667 33V150H98.3333V33Z"
              fill="#808080"/>
        <path d="M196.667 83C196.667 81.3431 198.01 80 199.667 80H292C293.657 80 295 81.3431 295 83V150H196.667V83Z"
              fill="#808080"/>
        <path d="M295 103C295 101.343 296.343 100 298 100H390.333C391.99 100 393.333 101.343 393.333 103V150H295V103Z"
              fill="#808080"/>
        <path d="M393.333 63C393.333 61.3431 394.676 60 396.333 60H488.667C490.323 60 491.667 61.3431 491.667 63V150H393.333V63Z"
              fill="#808080"/>
        <path d="M491.667 3C491.667 1.34314 493.01 0 494.667 0H587C588.657 0 590 1.34315 590 3V147C590 148.657 588.657 150 587 150H491.667V3Z"
              fill="#808080"/>
    </g>
</svg>
