<svg width="758" height="656" viewBox="0 0 758 656" fill="none" xmlns="http://www.w3.org/2000/svg">
<path d="M38.4521 386.146H31.036L5.53669 358.415V386.134H0V329.058H5.53669V355.557L31.036 329.058H37.8806L10.8321 356.713L38.4521 386.146Z" fill="#FFE576"/>
<path d="M52.055 386.139H46.5183V329.064H52.055V386.139Z" fill="#FFE576"/>
<path d="M115.188 388.404L71.9356 340.729V386.143H66.3989V326.768L109.651 374.481V329.067H115.188V388.404Z" fill="#FFE576"/>
<path d="M184.19 358.416C184.19 366.521 182.121 373.203 178.006 378.475C173.168 384.674 166.082 387.773 156.748 387.773C147.783 387.773 140.583 385.042 135.122 379.58C129.662 374.117 126.931 366.877 126.931 357.845C126.931 348.711 129.573 341.369 134.868 335.792C140.164 330.228 146.97 327.433 155.275 327.433C160.761 327.433 165.612 328.551 169.815 330.774C174.019 332.997 177.562 336.262 180.444 340.556L176.203 343.655C174.082 340.505 171.53 337.951 168.545 335.995C164.533 333.327 160.075 331.994 155.186 331.994C148.507 331.994 143.097 334.458 138.983 339.374C134.855 344.29 132.798 350.451 132.798 357.845C132.798 365.403 134.957 371.513 139.275 376.188C143.592 380.863 149.358 383.2 156.583 383.2C163.161 383.2 168.507 381.079 172.635 376.836C176.431 372.923 178.336 368.299 178.336 362.977H157.802V358.404L184.19 358.416Z" fill="#FFE576"/>
<path d="M269.315 386.135H263.613L255.715 367.55H231.841L223.942 386.135H218.24L243.816 327.408L269.315 386.135ZM253.759 362.977L243.816 339.552L233.797 362.964H253.759V362.977Z" fill="#FFE576"/>
<path d="M316.968 364.849C316.968 373.55 314.631 379.8 309.958 383.598C306.593 386.368 302.186 387.752 296.764 387.752C290.135 387.752 285.106 385.733 281.652 381.68C278.198 377.628 276.484 372.026 276.484 364.849V329.064H282.02V365.674C282.02 371.378 283.43 375.786 286.262 378.886C288.916 381.769 292.421 383.205 296.776 383.205C301.069 383.205 304.51 381.795 307.126 378.962C310.009 375.811 311.444 371.378 311.444 365.674V329.064H316.98L316.968 364.849Z" fill="#FFE576"/>
<path d="M360.151 333.637H344.912V386.139H339.375V333.637H324.137V329.064H360.151V333.637Z" fill="#FFE576"/>
<path d="M427.2 357.592C427.2 366.459 424.228 373.7 418.285 379.327C412.342 384.955 405.053 387.762 396.418 387.762C387.668 387.762 380.392 384.993 374.588 379.442C368.607 373.738 365.623 366.446 365.623 357.592C365.623 348.738 368.569 341.485 374.461 335.857C380.354 330.23 387.668 327.422 396.418 327.422C405.104 327.422 412.355 330.166 418.171 335.654C424.177 341.37 427.2 348.687 427.2 357.592ZM421.333 357.592C421.333 350.199 418.945 344.089 414.171 339.249C409.396 334.409 403.466 331.995 396.405 331.995C389.344 331.995 383.427 334.409 378.639 339.249C373.865 344.089 371.477 350.199 371.477 357.592C371.477 364.985 373.865 371.096 378.639 375.935C383.414 380.775 389.332 383.189 396.405 383.189C403.466 383.189 409.383 380.763 414.171 375.935C418.933 371.108 421.333 364.985 421.333 357.592Z" fill="#FFE576"/>
<path d="M523.485 353.034C523.536 353.58 523.587 354.203 523.612 354.914C523.638 355.626 523.65 356.35 523.65 357.112C523.65 358.738 523.549 360.542 523.371 362.498C523.181 364.454 522.812 366.436 522.266 368.456C520.907 373.296 518.215 377.716 514.202 381.705C510.19 385.707 503.828 387.701 495.141 387.701L494.329 387.777C485.909 387.726 478.582 385.211 472.334 380.232C466.087 375.265 462.963 367.859 462.963 358.014C462.963 348.944 465.668 341.576 471.065 335.923C476.462 330.27 483.84 327.45 493.186 327.45H493.999C499.865 327.45 505.123 328.593 509.771 330.88C514.418 333.166 517.987 336.647 520.488 341.322L506.393 347.927H505.58C504.551 345.857 503.027 344.231 501.021 343.037C499.015 341.843 496.678 341.22 494.011 341.157C490.214 341.207 486.887 342.643 484.03 345.438C481.173 348.232 479.751 352.323 479.751 357.709C479.751 363.146 481.173 367.401 484.03 370.476C486.887 373.55 490.392 375.138 494.583 375.239C497.681 375.138 500.335 374.223 502.57 372.508C504.793 370.793 506.24 368.507 506.888 365.623H492.056V353.072H492.868L523.485 353.034Z" fill="#FFE576"/>
<path d="M531.383 329.064H532.196H555.815C556.361 329.064 557.58 329.14 559.485 329.267C561.377 329.407 563.397 329.902 565.517 330.779C568.019 331.82 570.305 333.497 572.4 335.835C574.495 338.172 575.537 341.627 575.537 346.188C575.537 351.193 574.356 354.978 571.994 357.557C569.632 360.136 567.041 361.978 564.209 363.057C564.095 363.108 563.993 363.159 563.879 363.185C563.765 363.21 563.663 363.261 563.549 363.312L579.511 386.139H578.699H559.384L548.145 368.609V386.139H547.333H531.37L531.383 329.064ZM551.269 354.75C553.987 354.75 555.879 354.127 556.971 352.87C558.05 351.625 558.647 350.265 558.762 348.792C558.762 348.69 558.762 348.576 558.762 348.462C558.762 348.36 558.762 348.246 558.762 348.131C558.762 348.03 558.762 347.903 558.762 347.763C558.762 347.623 558.762 347.483 558.762 347.318C558.596 345.908 557.974 344.6 556.895 343.406C555.815 342.212 553.936 341.615 551.282 341.615H548.183V354.737L551.269 354.75Z" fill="#FFE576"/>
<path d="M589.967 378.716C584.748 372.682 582.145 365.644 582.145 357.603C582.145 349.613 584.71 342.588 589.84 336.529C594.97 330.469 602.615 327.433 612.774 327.433H613.587C623.733 327.433 631.391 330.469 636.521 336.529C641.651 342.588 644.216 349.613 644.216 357.603C644.216 365.644 641.651 372.656 636.521 378.64C631.391 384.623 623.746 387.633 613.587 387.684L612.774 387.761C602.78 387.761 595.174 384.75 589.967 378.716ZM614.806 373.939C615.403 373.863 616 373.711 616.596 373.495C619.2 372.783 621.574 371.196 623.733 368.731C625.879 366.267 626.946 362.545 626.946 357.603C626.946 352.662 625.867 348.952 623.695 346.475C621.524 344.011 619.162 342.41 616.609 341.712C616.012 341.546 615.428 341.419 614.857 341.305C614.285 341.203 613.727 341.14 613.18 341.14C612.584 341.14 611.961 341.191 611.314 341.305C610.666 341.419 610.031 341.572 609.434 341.8C606.933 342.563 604.634 344.176 602.552 346.653C600.456 349.13 599.415 352.776 599.415 357.616C599.415 362.456 600.456 366.114 602.552 368.579C604.647 371.056 606.933 372.669 609.434 373.431C610.031 373.647 610.641 373.812 611.263 373.927C611.885 374.041 612.495 374.092 613.092 374.092C613.638 374.066 614.209 374.028 614.806 373.939Z" fill="#FFE576"/>
<path d="M668.173 329.071V362.747C668.173 363.344 668.211 364.094 668.287 364.996C668.363 365.897 668.541 366.825 668.821 367.816C669.316 369.34 670.154 370.75 671.348 372.058C672.541 373.367 674.383 374.04 676.884 374.091C679.437 374.04 681.316 373.354 682.497 372.058C683.704 370.75 684.504 369.34 684.948 367.816C685.227 366.837 685.392 365.897 685.481 364.996C685.558 364.094 685.608 363.357 685.608 362.747V329.071H686.421H702.396V363.065C702.396 371.601 700.072 377.838 695.425 381.776C690.777 385.714 684.732 387.683 677.291 387.683L676.478 387.76C669.087 387.709 663.055 385.714 658.382 381.764C653.709 377.826 651.372 371.588 651.372 363.052V329.058H652.185H668.173V329.071Z" fill="#FFE576"/>
<path d="M712.073 329.064H712.886H736.912C742.995 329.064 747.541 330.372 750.563 332.976C753.573 335.581 755.605 338.464 756.633 341.627C757.002 342.771 757.281 343.901 757.446 345.006C757.611 346.124 757.687 347.166 757.687 348.144C757.687 349.122 757.611 350.164 757.446 351.282C757.281 352.4 757.014 353.53 756.633 354.673C755.656 357.824 753.649 360.72 750.602 363.362C747.554 366.005 742.995 367.313 736.912 367.313H728.848V386.152H728.036H712.061V329.064H712.073ZM728.848 354.75H732.595C734.931 354.75 736.633 354.369 737.725 353.606C738.804 352.844 739.541 352.031 739.922 351.167C740.138 350.57 740.277 349.999 740.328 349.452C740.379 348.906 740.404 348.474 740.404 348.144C740.404 347.814 740.392 347.496 740.366 347.166C740.341 346.836 740.303 346.518 740.252 346.188C739.973 345.044 739.3 344.003 738.22 343.05C737.141 342.097 735.261 341.627 732.607 341.627H728.861L728.848 354.75Z" fill="#FFE576"/>
<path d="M378.846 21.7224L36.1675 130.461L378.846 0L721.524 130.461L378.846 21.7224Z" fill="url(#paint0_linear_0_1316)"/>
<path d="M378.846 634.092L36.1675 482.023L378.846 655.815L721.524 482.023L378.846 634.092Z" fill="url(#paint1_linear_0_1316)"/>
<path d="M224.273 437.139C224.273 440.391 223.397 442.729 221.657 444.152C220.4 445.193 218.749 445.701 216.717 445.701C214.241 445.701 212.361 444.939 211.066 443.428C209.771 441.916 209.136 439.807 209.136 437.127V423.738H211.206V437.432C211.206 439.566 211.739 441.217 212.793 442.373C213.784 443.453 215.104 443.986 216.73 443.986C218.33 443.986 219.625 443.453 220.603 442.399C221.682 441.217 222.216 439.553 222.216 437.432V423.738H224.286L224.273 437.139Z" fill="#FFE576"/>
<path d="M247.561 445.94L231.37 428.104V445.101H229.301V422.883L245.479 440.744V423.747H247.549V445.94H247.561Z" fill="#FFE576"/>
<path d="M255.001 445.108H252.931V423.754H255.001V445.108Z" fill="#FFE576"/>
<path d="M282.434 434.42C282.434 436.11 282.117 437.685 281.494 439.146C280.809 440.734 279.818 442.029 278.536 443.02L281.609 446.59H279.475L277.253 443.998C276.313 444.595 275.374 445.015 274.421 445.294C273.469 445.561 272.3 445.701 270.916 445.701C267.64 445.701 264.922 444.659 262.751 442.588C260.516 440.454 259.398 437.723 259.398 434.407C259.398 431.092 260.503 428.386 262.7 426.277C264.91 424.181 267.64 423.114 270.916 423.114C274.167 423.114 276.885 424.143 279.056 426.201C281.304 428.348 282.434 431.079 282.434 434.42ZM280.237 434.42C280.237 431.651 279.348 429.364 277.558 427.56C275.767 425.757 273.558 424.842 270.916 424.842C268.275 424.842 266.065 425.744 264.275 427.56C262.484 429.364 261.595 431.664 261.595 434.42C261.595 437.189 262.484 439.476 264.275 441.28C266.065 443.084 268.275 443.998 270.916 443.998C272.034 443.998 273.062 443.846 273.989 443.541C274.675 443.312 275.348 442.995 275.996 442.563L271.361 437.189H273.494L277.24 441.547C278.193 440.734 278.929 439.692 279.45 438.434C279.983 437.189 280.237 435.843 280.237 434.42Z" fill="#FFE576"/>
<path d="M301.64 437.139C301.64 440.391 300.764 442.729 299.024 444.152C297.767 445.193 296.116 445.701 294.085 445.701C291.608 445.701 289.729 444.939 288.434 443.428C287.138 441.916 286.503 439.807 286.503 437.127V423.738H288.573V437.432C288.573 439.566 289.107 441.217 290.161 442.373C291.151 443.453 292.472 443.986 294.097 443.986C295.697 443.986 296.993 443.453 297.97 442.399C299.05 441.217 299.583 439.553 299.583 437.432V423.738H301.653L301.64 437.139Z" fill="#FFE576"/>
<path d="M318.091 445.108H306.662V423.754H318.091V425.457H308.732V432.291H317.748V433.993H308.732V443.393H318.091V445.108Z" fill="#FFE576"/>
<path d="M340.751 445.94L324.56 428.104V445.101H322.49V422.883L338.668 440.744V423.747H340.738V445.94H340.751Z" fill="#FFE576"/>
<path d="M357.53 445.108H346.101V423.754H357.53V425.457H348.171V432.291H357.187V433.993H348.171V443.393H357.53V445.108Z" fill="#FFE576"/>
<path d="M373.851 439.196C373.851 441.051 373.217 442.601 371.947 443.846C370.677 445.103 369.026 445.726 366.994 445.726C365.153 445.726 363.565 445.154 362.27 444.023C361.33 443.21 360.619 442.181 360.099 440.936L362.042 439.958C362.41 441.038 362.969 441.927 363.718 442.639C364.67 443.553 365.826 444.011 367.159 444.011C368.48 444.011 369.559 443.566 370.385 442.664C371.223 441.775 371.642 440.644 371.642 439.31C371.642 438.091 371.197 437.087 370.334 436.287C369.75 435.754 368.581 435.093 366.867 434.293C365.14 433.492 363.883 432.73 363.121 432.019C361.915 430.939 361.33 429.656 361.33 428.17C361.33 426.925 361.699 425.858 362.461 424.969C363.489 423.749 365.077 423.139 367.185 423.139C368.315 423.139 369.293 423.317 370.08 423.66C371.274 424.168 372.175 425.07 372.759 426.379L371.109 427.357C370.778 426.62 370.359 426.061 369.826 425.655C369.14 425.121 368.277 424.867 367.261 424.867C365.915 424.867 364.911 425.235 364.238 425.998C363.705 426.595 363.451 427.306 363.451 428.132C363.451 429.389 364.188 430.469 365.673 431.371C366.156 431.676 367.032 432.12 368.289 432.718C370.054 433.556 371.274 434.255 371.921 434.826C373.204 435.944 373.851 437.405 373.851 439.196Z" fill="#FFE576"/>
<path d="M389.724 439.196C389.724 441.051 389.089 442.601 387.819 443.846C386.549 445.103 384.898 445.726 382.866 445.726C381.025 445.726 379.438 445.154 378.142 444.023C377.203 443.21 376.492 442.181 375.971 440.936L377.914 439.958C378.282 441.038 378.841 441.927 379.59 442.639C380.543 443.553 381.698 444.011 383.031 444.011C384.352 444.011 385.432 443.566 386.257 442.664C387.095 441.775 387.514 440.644 387.514 439.31C387.514 438.091 387.07 437.087 386.206 436.287C385.622 435.754 384.454 435.093 382.739 434.293C381.012 433.492 379.755 432.73 378.993 432.019C377.787 430.939 377.203 429.656 377.203 428.17C377.203 426.925 377.571 425.858 378.333 424.969C379.362 423.749 380.949 423.139 383.057 423.139C384.187 423.139 385.165 423.317 385.952 423.66C387.146 424.168 388.048 425.07 388.632 426.379L386.981 427.357C386.651 426.62 386.232 426.061 385.698 425.655C385.013 425.121 384.149 424.867 383.133 424.867C381.787 424.867 380.784 425.235 380.111 425.998C379.577 426.595 379.323 427.306 379.323 428.132C379.323 429.389 380.06 430.469 381.546 431.371C382.028 431.676 382.904 432.12 384.162 432.718C385.927 433.556 387.146 434.255 387.794 434.826C389.089 435.944 389.724 437.405 389.724 439.196Z" fill="#FFE576"/>
<path d="M406.467 445.108H404.397V423.754H406.467V445.108Z" fill="#FFE576"/>
<path d="M430.085 445.94L413.894 428.104V445.101H411.824V422.883L428.003 440.744V423.747H430.072V445.94H430.085Z" fill="#FFE576"/>
<path d="M463.102 434.421C463.102 437.165 462.276 439.502 460.638 441.433C458.568 443.872 455.508 445.092 451.469 445.092H446.161V423.738H451.469C455.152 423.738 458.047 424.779 460.155 426.875C462.111 428.832 463.102 431.36 463.102 434.421ZM460.905 434.421C460.905 431.69 460.029 429.518 458.289 427.892C456.536 426.266 454.2 425.453 451.241 425.453H448.219V443.389H451.241C454.492 443.389 456.955 442.5 458.644 440.709C460.156 439.121 460.905 437.025 460.905 434.421Z" fill="#FFE576"/>
<path d="M478.917 445.108H467.489V423.754H478.917V425.457H469.558V432.291H478.575V433.993H469.558V443.393H478.917V445.108Z" fill="#FFE576"/>
<path d="M494.425 425.452H488.724V445.104H486.654V425.465H480.952V423.763H494.425V425.452Z" fill="#FFE576"/>
<path d="M514.214 445.116H512.081L509.122 438.154H500.195L497.236 445.116H495.103L504.677 423.139L514.214 445.116ZM508.398 436.452L504.677 427.687L500.931 436.452H508.398Z" fill="#FFE576"/>
<path d="M519.301 445.108H517.231V423.754H519.301V445.108Z" fill="#FFE576"/>
<path d="M533.632 445.108H524.666V423.754H526.736V443.393H533.632V445.108Z" fill="#FFE576"/>
<path d="M548.567 439.196C548.567 441.051 547.932 442.601 546.662 443.846C545.392 445.103 543.741 445.726 541.709 445.726C539.855 445.726 538.281 445.154 536.985 444.023C536.046 443.21 535.335 442.181 534.814 440.936L536.757 439.958C537.125 441.038 537.684 441.927 538.433 442.639C539.386 443.553 540.541 444.011 541.875 444.011C543.195 444.011 544.275 443.566 545.1 442.664C545.938 441.775 546.357 440.644 546.357 439.31C546.357 438.091 545.913 437.087 545.049 436.287C544.452 435.754 543.297 435.093 541.57 434.293C539.843 433.492 538.598 432.73 537.824 432.019C536.617 430.939 536.02 429.656 536.02 428.17C536.02 426.925 536.389 425.858 537.151 424.969C538.192 423.749 539.767 423.139 541.875 423.139C543.005 423.139 543.983 423.317 544.77 423.66C545.964 424.168 546.865 425.07 547.449 426.379L545.798 427.357C545.468 426.62 545.049 426.061 544.516 425.655C543.83 425.121 542.967 424.867 541.951 424.867C540.605 424.867 539.601 425.235 538.928 425.998C538.395 426.595 538.141 427.306 538.141 428.132C538.141 429.389 538.878 430.469 540.363 431.371C540.846 431.676 541.722 432.12 542.979 432.718C544.744 433.556 545.964 434.255 546.611 434.826C547.932 435.944 548.567 437.405 548.567 439.196Z" fill="#FFE576"/>
<path d="M467.717 259.214C461.19 261.894 445.736 268.601 377.911 268.919C377.721 268.932 377.518 268.932 377.314 268.919C308.093 268.716 292.448 261.92 285.87 259.214C278.2 256.063 271.393 252.608 269.031 251.236C269.108 252.494 270.365 268.741 282.861 274.623C284.803 275.537 287.788 276.566 291.813 276.63C320.144 276.541 348.475 276.452 376.794 276.363C405.125 276.452 433.456 276.541 461.774 276.63C465.8 276.554 468.771 275.537 470.727 274.623C483.21 268.728 484.467 252.494 484.556 251.236C482.194 252.608 475.388 256.051 467.717 259.214ZM313.3 273.009C310.061 273.136 303.864 273.098 300.182 272.959C295.737 272.781 291.585 272.387 287.788 271.892C285.959 271.65 284.194 270.99 282.734 269.884C280.321 268.068 278.962 265.946 279.279 264.054C279.318 263.838 279.381 263.609 279.47 263.368C279.622 262.974 280.092 262.758 280.524 262.86C285.324 263.965 288.918 265.26 294.378 266.95C299.648 268.589 308.931 270.481 313.439 272.273C313.82 272.425 313.719 272.997 313.3 273.009ZM470.714 269.872C469.254 270.977 467.489 271.625 465.66 271.879C461.863 272.387 457.711 272.768 453.266 272.946C449.596 273.098 442.701 273.175 439.475 273.048C439.056 273.035 438.942 272.463 439.336 272.311C443.831 270.52 453.812 268.576 459.07 266.937C464.517 265.235 468.124 263.952 472.924 262.847C473.343 262.745 473.813 262.961 473.978 263.355C474.08 263.596 474.13 263.825 474.168 264.041C474.486 265.934 473.127 268.055 470.714 269.872Z" fill="#FFE576"/>
<path d="M498.458 216.233C497.607 217.707 496.197 221.721 492.426 223.639C489.403 225.176 485.352 225.125 484.743 223.766C483.752 221.594 491.448 215.039 494.788 212.346C495.334 211.901 495.054 211.05 494.356 211.012C491.003 210.809 484.006 210.784 479.435 213.426C477.936 214.302 476.806 214.963 475.981 216.348C474.063 219.612 475.917 223.41 473.86 224.833C473.441 225.125 472.806 225.278 472.196 225.418H472.184C469.517 222.102 467.828 219.536 467.269 218.659C463.053 212.117 464.171 211.342 459.637 203.911C456.513 198.804 454.126 194.905 450.05 191.678C444.03 186.914 437.44 186.089 433.516 185.555C403.483 181.528 384.486 180.741 378.403 180.588C378.047 180.575 377.742 180.575 377.476 180.563H377.4C377.095 180.563 376.727 180.575 376.282 180.588C370.212 180.741 351.202 181.528 321.169 185.555C317.258 186.076 310.655 186.914 304.635 191.678C300.559 194.905 298.172 198.804 295.048 203.911C290.514 211.33 291.619 212.105 287.416 218.659C286.844 219.536 285.181 222.089 282.514 225.392C281.93 225.265 281.333 225.1 280.939 224.821C278.882 223.398 280.749 219.6 278.819 216.335C278.006 214.95 276.876 214.29 275.364 213.413C270.806 210.784 263.809 210.809 260.443 210.999C259.758 211.038 259.478 211.901 260.012 212.333C263.351 215.026 271.047 221.569 270.056 223.753C269.447 225.1 265.396 225.164 262.374 223.626C258.602 221.696 257.192 217.694 256.342 216.22C256.164 215.916 255.707 216.043 255.707 216.386C255.681 217.415 255.846 219.472 257.078 221.873C258.97 225.557 261.015 226.993 267.771 228.797C271.187 229.699 273.434 231.744 275.288 233.294C273.079 235.415 271.809 236.342 268.952 239.505C265.053 243.824 263.085 246.048 261.866 249.376C259.593 255.613 261.294 261.609 261.726 261.609C262.183 261.609 260.939 254.787 264.913 248.398C266.45 245.933 268.113 244.574 271.161 242.148C275.999 238.286 279.149 237.003 282.514 235.123L313.55 255.003L288.609 231.159C289.194 230.766 289.765 230.372 290.311 229.953C290.336 229.94 290.362 229.927 290.4 229.927C318.16 228.797 346.986 228.161 376.815 228.161C407.026 228.161 436.221 228.809 464.323 229.978C464.349 229.978 464.387 229.991 464.412 230.003C464.945 230.397 465.491 230.778 466.063 231.159L441.122 255.003L472.158 235.123C475.523 237.003 478.673 238.286 483.511 242.148C486.546 244.574 488.222 245.933 489.759 248.398C493.746 254.787 492.489 261.609 492.946 261.609C493.378 261.609 495.08 255.613 492.807 249.376C491.588 246.048 489.619 243.824 485.708 239.505C482.876 236.368 481.619 235.428 479.435 233.332C481.289 231.769 483.549 229.711 487.003 228.784C493.759 226.98 495.804 225.545 497.696 221.861C498.927 219.472 499.093 217.415 499.067 216.386C499.105 216.055 498.635 215.928 498.458 216.233ZM376.714 223.919C354.491 223.919 332.598 223.728 311.035 223.347C310.947 223.334 310.883 223.271 310.883 223.182L310.578 201.688C310.566 201.498 310.312 201.459 310.248 201.637L302.769 223.08C302.743 223.144 302.68 223.195 302.616 223.195C300.445 223.156 298.26 223.106 296.102 223.055C296.241 222.724 296.368 222.369 296.483 222C302.172 204.343 303.213 195.336 314.261 191.411C317.931 190.103 353.589 188.121 370.174 187.257C374.987 187.016 379.787 187.016 384.587 187.257C401.172 188.121 436.805 190.115 440.487 191.411C451.548 195.336 452.564 204.343 458.266 222C458.38 222.356 458.507 222.699 458.634 223.029C431.827 223.626 404.524 223.919 376.714 223.919Z" fill="#FFE576"/>
<defs>
<linearGradient id="paint0_linear_0_1316" x1="36.1662" y1="65.232" x2="721.527" y2="65.232" gradientUnits="userSpaceOnUse">
<stop offset="0.016" stop-color="#D6B452"/>
<stop offset="0.1198" stop-color="#E8CD68"/>
<stop offset="0.2298" stop-color="#F5DF78"/>
<stop offset="0.3457" stop-color="#FCE982"/>
<stop offset="0.4765" stop-color="#FFED85"/>
<stop offset="0.611" stop-color="#FCE982"/>
<stop offset="0.731" stop-color="#F5DF78"/>
<stop offset="0.845" stop-color="#E8CC68"/>
<stop offset="0.9518" stop-color="#D6B452"/>
</linearGradient>
<linearGradient id="paint1_linear_0_1316" x1="36.1662" y1="568.919" x2="721.527" y2="568.919" gradientUnits="userSpaceOnUse">
<stop offset="0.016" stop-color="#D6B452"/>
<stop offset="0.1176" stop-color="#E7CC67"/>
<stop offset="0.2309" stop-color="#F4DE78"/>
<stop offset="0.3486" stop-color="#FCE982"/>
<stop offset="0.4765" stop-color="#FFED85"/>
<stop offset="0.6211" stop-color="#FDEA82"/>
<stop offset="0.7361" stop-color="#F6E079"/>
<stop offset="0.8409" stop-color="#E9CF6A"/>
<stop offset="0.9391" stop-color="#D9B855"/>
<stop offset="0.9518" stop-color="#D6B452"/>
</linearGradient>
</defs>
</svg>
